# Blender v2.80 (sub 75) OBJ File: ''
# www.blender.org
mtllib FunctionStart.mtl
o FunctionStart
v 18.082903 64.000000 -10.000000
v 0.000000 50.000000 -10.000000
v 18.082903 64.000000 0.000000
v 0.000000 50.000000 0.000000
v 36.165806 64.000000 -10.000000
v 36.165806 64.000000 0.000000
v 18.082903 64.000000 0.000000
v 36.165806 0.000000 -10.000000
v 36.165806 0.000000 0.000000
v 26.165808 0.000000 -10.000000
v 26.165808 0.000000 0.000000
v 18.082903 14.000002 -10.000000
v 18.082903 14.000002 0.000000
v 10.000000 0.000000 -10.000000
v 10.000000 0.000000 0.000000
v 0.000000 0.000000 -10.000000
v 0.000000 0.000000 0.000000
v 0.000000 50.000000 0.000000
vn -0.6122 0.7907 0.0000
vn 0.0000 1.0000 0.0000
vn 1.0000 0.0000 0.0000
vn 0.0000 -1.0000 0.0000
vn -0.8660 -0.5000 0.0000
vn 0.8660 -0.5000 0.0000
vn -1.0000 0.0000 0.0000
vn 0.0000 0.0000 -1.0000
vn 0.0000 0.0000 1.0000
usemtl None
s off
f 1//1 2//1 3//1
f 3//1 2//1 4//1
f 5//2 1//2 6//2
f 6//2 1//2 7//2
f 8//3 5//3 9//3
f 9//3 5//3 6//3
f 10//4 8//4 11//4
f 11//4 8//4 9//4
f 12//5 10//5 13//5
f 13//5 10//5 11//5
f 14//6 12//6 15//6
f 15//6 12//6 13//6
f 16//4 14//4 17//4
f 17//4 14//4 15//4
f 2//7 16//7 18//7
f 18//7 16//7 17//7
f 1//8 5//8 12//8
f 12//8 5//8 8//8
f 12//8 8//8 10//8
f 14//8 16//8 12//8
f 12//8 16//8 2//8
f 12//8 2//8 1//8
f 13//9 11//9 9//9
f 17//9 15//9 18//9
f 18//9 15//9 13//9
f 18//9 13//9 7//9
f 7//9 13//9 9//9
f 7//9 9//9 6//9
