# Blender v2.80 (sub 75) OBJ File: ''
# www.blender.org
mtllib TabConnection.mtl
o TabConnection
v 46.165810 50.000000 -10.000000
v 0.000000 50.000000 -10.000000
v 46.165810 50.000000 0.000000
v 0.000000 50.000000 0.000000
v 54.248714 64.000000 -10.000000
v 54.248714 64.000000 0.000000
v 62.331615 50.000000 -10.000000
v 62.331615 50.000000 0.000000
v 72.331612 50.000000 -10.000000
v 72.331612 50.000000 0.000000
v 72.331612 0.000000 -10.000000
v 72.331612 0.000000 0.000000
v 26.165808 0.000000 -10.000000
v 26.165808 0.000000 0.000000
v 18.082903 14.000002 -10.000000
v 18.082903 14.000002 0.000000
v 10.000000 0.000000 -10.000000
v 10.000000 0.000000 0.000000
v 0.000000 0.000000 -10.000000
v 0.000000 0.000000 0.000000
vn 0.0000 1.0000 0.0000
vn -0.8660 0.5000 0.0000
vn 0.8660 0.5000 0.0000
vn 1.0000 0.0000 0.0000
vn 0.0000 -1.0000 0.0000
vn -0.8660 -0.5000 0.0000
vn 0.8660 -0.5000 0.0000
vn -1.0000 0.0000 0.0000
vn 0.0000 0.0000 -1.0000
vn 0.0000 0.0000 1.0000
usemtl None
s off
f 1//1 2//1 3//1
f 3//1 2//1 4//1
f 5//2 1//2 6//2
f 6//2 1//2 3//2
f 7//3 5//3 8//3
f 8//3 5//3 6//3
f 9//1 7//1 10//1
f 10//1 7//1 8//1
f 11//4 9//4 12//4
f 12//4 9//4 10//4
f 13//5 11//5 14//5
f 14//5 11//5 12//5
f 15//6 13//6 16//6
f 16//6 13//6 14//6
f 17//7 15//7 18//7
f 18//7 15//7 16//7
f 19//5 17//5 20//5
f 20//5 17//5 18//5
f 2//8 19//8 4//8
f 4//8 19//8 20//8
f 15//9 17//9 19//9
f 7//9 9//9 11//9
f 19//9 2//9 15//9
f 15//9 2//9 1//9
f 15//9 1//9 13//9
f 13//9 1//9 11//9
f 11//9 1//9 5//9
f 11//9 5//9 7//9
f 16//10 14//10 12//10
f 8//10 6//10 3//10
f 20//10 18//10 4//10
f 4//10 18//10 16//10
f 4//10 16//10 3//10
f 3//10 16//10 12//10
f 3//10 12//10 8//10
f 8//10 12//10 10//10
